<?xml version="1.0" standalone="no"?>
<!DOCTYPE svg PUBLIC "-//W3C//DTD SVG 20010904//EN"
 "http://www.w3.org/TR/2001/REC-SVG-20010904/DTD/svg10.dtd">
<svg version="1.0" xmlns="http://www.w3.org/2000/svg"
 width="2372.000000pt" height="2372.000000pt" viewBox="0 0 2372.000000 2372.000000"
 preserveAspectRatio="xMidYMid meet">
<metadata>
Created by potrace 1.14, written by Peter Selinger 2001-2017
</metadata>
<g transform="translate(0.000000,2372.000000) scale(0.100000,-0.100000)"
fill="#000000" stroke="none">
<path d="M11963 21520 c179 -250 76 -634 -299 -1105 -108 -136 -477 -507 -639
-642 -133 -111 -358 -337 -451 -453 -265 -328 -430 -672 -473 -984 -16 -113
-13 -308 5 -417 43 -251 164 -496 356 -724 90 -106 234 -249 223 -220 -4 11
-14 36 -21 55 -50 132 41 386 247 694 219 327 522 662 1120 1241 213 206 308
316 423 490 282 423 368 857 245 1230 -33 98 -103 234 -170 330 -112 159 -364
392 -549 508 l-35 22 18 -25z"/>
<path d="M13000 20005 c0 -3 11 -21 25 -39 70 -92 89 -272 47 -434 -56 -211
-195 -448 -421 -717 -115 -138 -387 -405 -577 -567 -857 -734 -1143 -1543
-793 -2240 82 -163 185 -302 343 -466 60 -62 111 -111 113 -109 1 2 -5 19 -14
38 -67 133 17 399 227 714 226 337 518 659 1174 1295 225 219 388 434 507 673
125 247 176 463 166 696 -14 329 -137 584 -417 861 -122 121 -380 322 -380
295z"/>
<path d="M10260 14482 c0 -5 116 -107 258 -226 l257 -218 340 -3707 341 -3706
486 -3 487 -2 5 32 c6 36 676 7335 676 7365 0 11 97 100 260 237 143 121 260
223 260 228 0 4 -758 8 -1685 8 -927 0 -1685 -4 -1685 -8z"/>
<path d="M7772 10180 l3 -3382 1345 -840 c740 -461 1367 -853 1394 -869 26
-17 46 -26 45 -20 -3 8 -808 858 -1340 1415 -63 67 -192 202 -287 301 l-171
180 -1 2897 0 2897 -482 393 c-266 217 -489 398 -496 402 -10 6 -12 -669 -10
-3374z"/>
<path d="M15620 13161 l-485 -397 -5 -2901 -5 -2900 -99 -104 c-1172 -1233
-1692 -1782 -1695 -1790 -2 -6 21 4 50 23 30 19 658 411 1397 872 l1342 838 0
3379 c0 1858 -3 3379 -7 3378 -5 0 -226 -179 -493 -398z"/>
<path d="M6140 8978 l0 -3263 1966 -538 c1081 -296 1968 -536 1970 -534 2 2
-659 350 -1471 773 l-1475 769 -2 2870 -3 2869 -480 157 c-264 87 -486 158
-492 158 -10 1 -13 -658 -13 -3261z"/>
<path d="M17685 12225 c-22 -8 -241 -80 -487 -160 l-448 -146 -2 -2870 -3
-2870 -330 -173 c-181 -95 -842 -439 -1468 -765 -626 -327 -1136 -596 -1133
-598 4 -4 3912 1063 3928 1073 4 3 8 1472 8 3265 0 2601 -3 3259 -12 3258 -7
0 -31 -7 -53 -14z"/>
<path d="M4560 7135 l0 -3025 1003 0 c1148 0 3967 12 3952 16 -10 4 -3948 614
-3959 614 -3 0 -6 1220 -6 2710 l0 2710 -495 0 -495 0 0 -3025z"/>
<path d="M18340 7451 l0 -2708 -42 -7 c-24 -4 -914 -142 -1978 -307 -1064
-164 -1939 -301 -1945 -302 -15 -5 2796 -17 3953 -17 l1002 0 0 3025 0 3025
-495 0 -495 0 0 -2709z"/>
<path d="M11450 6085 c0 -179 6 -207 54 -239 14 -9 45 -16 70 -16 l44 0 -19
-87 c-84 -379 -186 -686 -306 -914 l-55 -105 58 -105 c211 -380 441 -914 580
-1342 l48 -148 -22 -15 c-42 -29 -17 -124 34 -124 19 0 56 19 66 34 15 21 8
66 -13 87 -21 21 -21 22 -4 82 51 181 202 580 318 838 72 161 231 481 302 610
l45 81 -75 152 c-112 229 -193 470 -269 806 l-33 145 46 5 c109 13 121 39 121
255 l0 165 -495 0 -495 0 0 -165z"/>
</g>
</svg>
